<svg height='100px' width='100px'  fill="#FFFFFF" xmlns="http://www.w3.org/2000/svg" viewBox="0 0 100 100" x="0px" y="0px"><g fill="#FFFFFF" fill-rule="evenodd"><path d="M47.9482905,81.0022396 C48.6095812,81.0006401 49.2931607,81.0000919 50,81.0000919 C65,81.0000919 69.5292612,81.2469641 72.8605501,86.5490181 C74.6822177,89.4483703 77.8974768,91 81.4441173,91 C87.2431072,91 91.9441173,86.2132859 91.9441173,80.5 C91.9441173,77.1536558 90.6800165,76.0656779 89.2727321,73.2813841 C87.833048,74.1411817 86.1958931,74.9383571 84.3935513,75.6779724 C86.5312847,76.74248 88,78.9497216 88,81.5 C88,85.0898509 85.0898509,88 81.5,88 C77.9101491,88 75,85.0898509 75,81.5 C75,80.4149587 75.2658612,79.3920126 75.7359948,78.4927505 C75.6194289,78.5225148 75.5029942,78.5519611 75.3867082,78.5810901 C74.6026169,78.7775006 73.8805533,78.9453684 73.2363319,79.0850165 C72.845902,79.1696502 72.5653641,79.2265831 72.4106038,79.2560926 L71.2335577,79.48053 L70.6488962,78.4345948 C70.5720237,78.2970732 70.4353106,78.045573 70.2491802,77.6920848 C69.9420594,77.1088186 69.60652,76.4477824 69.252975,75.7208834 C68.2430729,73.6444946 67.287908,71.4501956 66.4707833,69.2308285 C65.1554878,65.6583955 64.3239735,62.364824 64.1337868,59.4874967 C64.0958002,58.9127992 64.0838118,58.3565197 64.0988193,57.9061113 C64.0622466,56.3850181 64.3737661,54.8731388 65.0298481,53.465403 C67.3970363,48.4208047 73.4342676,46.2825978 78.5332817,48.6603071 C80.670202,49.6567694 82.3568717,51.3191593 83.3783727,53.3481136 C84.1061088,53.1774566 84.8580942,53.0911269 85.6149086,53.0871271 C85.5490158,51.2156388 85.5134211,49.1752595 85.5134211,46.9473097 C85.5134211,24.9150043 73.0041172,7.99631905 50.0020586,7.99631905 C27,7.99631905 14.4906962,24.9150043 14.4906962,46.9473097 C14.4906962,76.8934986 8.05999994,72.9524022 8.05999994,80.5 C8.05999994,86.2132859 12.7610101,91 18.5599999,91 C22.1066405,91 25.3218996,89.4483703 27.1435671,86.5490181 C29.9877476,82.0222422 33.7021725,81.1803728 44.062871,81.0309596 C44.0220489,80.9586792 44,80.8800929 44,80.7952009 C44,78.7349778 44.0039024,74.9179687 44.0039024,74.9179687 C44.0039024,74.9179687 44,70.944417 44,68.5094866 C44,67.3666295 47.9960976,67.3666295 47.9960976,68.5094866 C47.9960976,70.8219945 48,74.9179687 48,74.9179687 C48,74.9179687 47.9960976,78.268607 47.9960976,80.7952009 C47.9960976,80.8689763 47.9794452,80.9379892 47.9482905,81.0022396 L47.9482905,81.0022396 Z M89.6087273,53.8434508 C89.7915807,53.9163709 89.9724633,53.9944851 90.1510461,54.0777596 C95.2358657,56.4488499 97.4867384,62.4278155 95.1682194,67.4712248 C94.5200686,68.8607787 93.6074602,70.0389753 92.5308072,70.926888 C94.2261039,75.0467352 96.0041173,76.5249683 96.0041173,81.5 C96.0041173,88.9558441 89.9599614,95 82.5041173,95 C77.850455,95 73.8298009,92.4191822 71.3194608,89.0623985 C67.8921641,84.4794761 63,85.0008237 50,85.0008237 C37,85.0008237 32.1119532,84.4794761 28.6846565,89.0623985 C26.1743164,92.4191822 22.1536623,95 17.5,95 C10.0441559,95 4,88.9558441 4,81.5 C4,71.9922557 10.4937911,75.2557761 10.4937911,48.4454752 C10.4937911,23.932682 25.2285503,5.00209758 50,5.00000017 C74.7739343,5 89.5103262,23.931324 89.5103262,48.4454752 C89.5103262,50.3989394 89.5448013,52.1927436 89.6087277,53.8434612 L89.6087273,53.8434508 Z M77.4131551,51.1349274 C73.964804,49.5269349 69.9069049,50.9641215 68.3247067,54.3358527 C67.8881461,55.272577 67.6813039,56.276432 67.7054622,57.3757382 C67.6933114,57.8055138 67.7030553,58.257649 67.7343372,58.7309116 C67.9001533,61.2395362 68.6591168,64.2457388 69.8739048,67.5451868 C70.6493765,69.6514212 71.5614386,71.7467004 72.5260127,73.7298932 C72.786249,74.2649468 73.2698918,75.2145882 73.2698918,75.2145882 C73.2698918,75.2145882 74.1150112,75.0074211 74.863566,74.8199123 C77.0027961,74.284047 79.1941353,73.6359077 81.3060681,72.876092 C84.6144426,71.6858294 87.4051796,70.3348794 89.4334821,68.849389 C89.8161299,68.5691451 90.1687489,68.2859824 90.5566193,67.944419 C91.3514438,67.3094041 91.9859512,66.5040269 92.436889,65.5373333 C93.9826571,62.1748266 92.4696691,58.1558952 89.0309195,56.5523799 C87.209995,55.7032689 85.1634231,55.6814458 83.3737096,56.4442879 L81.6708941,57.1700908 L81.1323428,55.3991214 C80.5663081,53.5377758 79.2340795,51.9840384 77.4131551,51.1349274 Z M18.5,88 C14.9101491,88 12,85.0898509 12,81.5 C12,77.9101491 14.9101491,75 18.5,75 C22.0898509,75 25,77.9101491 25,81.5 C25,85.0898509 22.0898509,88 18.5,88 Z M55.9960976,68.5094866 C55.9960976,70.8219945 56,73.9179687 56,73.9179687 C56,73.9179687 55.9960976,76.268607 55.9960976,78.7952009 C55.9960976,79.938058 52,79.938058 52,78.7952009 C52,76.7349778 52.0039024,73.9179687 52.0039024,73.9179687 C52.0039024,73.9179687 52,70.944417 52,68.5094866 C52,67.3666295 55.9960976,67.3666295 55.9960976,68.5094866 Z M63.9960976,68.5094866 C63.9960976,70.8219945 64,72.9179687 64,72.9179687 C64,72.9179687 63.9960976,74.268607 63.9960976,76.7952009 C63.9960976,77.938058 60,77.938058 60,76.7952009 C60,74.7349778 60.0039024,72.9179687 60.0039024,72.9179687 C60.0039024,72.9179687 60,70.944417 60,68.5094866 C60,67.3666295 63.9960976,67.3666295 63.9960976,68.5094866 Z"></path><g transform="translate(24 35)"><path d="M1.76923077,5.0016276 C4.7676353,5.0016276 7.54121051,7.9983724 11,7.9983724 C13.5736011,7.9983724 17.0402362,5.0016276 20.2307692,5.0016276 C21.2564103,5.0016276 21.2564103,7.9983724 20.2307692,7.9983724 C17.4587742,7.9983724 14.1228391,10.9983724 11,10.9983724 C7.93658476,10.9983724 4.87750162,7.9983724 1.76923077,7.9983724 C0.743589744,7.9983724 0.743589744,5.0016276 1.76923077,5.0016276 Z" transform="matrix(-1 0 0 1 52 0)"></path><path d="M9.9,15.6727577 C16.8770508,13.9527086 22,12.4165908 22,8.00099881 C22,3.59370541 19.1707764,-0.168836152 11,0.00586226596 C2.82922363,0.180560684 0,3.58540682 0,8.00099881 C0,12.4165908 3.2055409,17.3231396 9.9,15.6727577 Z"></path></g></g></svg>