<svg height='100px' width='100px'  fill="#FFFFFF" xmlns="http://www.w3.org/2000/svg" xmlns:xlink="http://www.w3.org/1999/xlink" version="1.1" x="0px" y="0px" viewBox="0 0 2000 2000" style="enable-background:new 0 0 2000 2000;" xml:space="preserve"><g><path d="M788,485.6c7.7,13.4,21.7,20.8,36.1,20.8c7.1,0,14.2-1.8,20.8-5.6l180.4-104.2c9.6-5.5,16.6-14.6,19.4-25.3   c2.9-10.7,1.4-22.1-4.2-31.6l-62.5-108.3c-11.5-19.9-37-26.8-56.9-15.3L740.8,320.5c-9.6,5.5-16.6,14.6-19.4,25.3   c-2.9,10.7-1.4,22.1,4.2,31.6L788,485.6z M926.8,309.3l20.8,36.1l-108.3,62.5l-20.8-36.1L926.8,309.3z"></path><path d="M1829.3,1039.2l-437.5-757.8c-75.1-130.1-196.4-223.2-341.6-262.1c-86-23-174.2-25.3-258.9-7.7c-0.2,0-0.4,0.1-0.6,0.1   C732.7,23.7,676.3,45,623.4,75.5c-52.7,30.4-99.2,68.6-138.6,112.7c-0.4,0.4-0.8,0.9-1.2,1.3c-57.3,64.5-99.3,141.8-122.3,227.6   c-38.9,145.1-18.9,296.7,56.2,426.9l207.7,359.8l-255.6,463h-79.6c-17.9,0-33.9,11.5-39.5,28.5l-83.3,250   c-4.2,12.7-2.1,26.7,5.7,37.5c7.8,10.9,20.4,17.3,33.8,17.3h583.4c13.4,0,26-6.4,33.8-17.3c7.8-10.9,10-24.8,5.7-37.5l-83.3-250   c-5.7-17-21.6-28.5-39.5-28.5h-12.1l96.8-172.3l63.8,107.8c7.8,13.1,21.6,20.4,35.9,20.4c7.1,0,14.2-1.8,20.8-5.6l140.1-80.9   l134,88.5c6.9,4.6,14.9,6.9,23,6.9c7.2,0,14.4-1.9,20.8-5.6l39.9-23c19.4,12.5,40.3,22,62,28.2v35.7h-83.3   c-17.9,0-33.9,11.5-39.5,28.5l-83.3,250c-4.2,12.7-2.1,26.7,5.7,37.5c7.8,10.9,20.4,17.3,33.8,17.3h583.4c13.4,0,26-6.4,33.8-17.3   c7.8-10.9,10-24.8,5.7-37.5l-83.3-250c-5.7-17-21.6-28.5-39.5-28.5h-83.3v-124.6c28.9-41.4,43.9-91.7,41.3-143.2l39.8-23   c13.7-7.9,21.7-22.8,20.8-38.6L1674,1177l140.1-80.9C1834,1084.6,1840.8,1059.1,1829.3,1039.2z M665.1,147.7   c27-15.6,55.2-28.3,84.1-38.3c-11.8,30.8-33.7,57.3-63.3,74.4c-29.6,17.1-63.5,22.8-96,17.6C612.9,181.3,638,163.3,665.1,147.7z    M525.7,269.1c27.9,11.5,57.5,17.6,87.2,17.6c39.5,0,79.1-10.2,114.6-30.7c62.2-35.9,103-98.3,112.3-168.2   c62.3-8.5,126.3-4.7,188.8,12c110.1,29.5,203.9,95.8,268.4,188.2L470.6,765.1c-6-12.8-11.2-25.7-16-38.9l246-142   c19.9-11.5,26.8-37,15.2-56.9l-62.5-108.3c-5.5-9.6-14.6-16.6-25.3-19.4c-10.7-2.9-22.1-1.4-31.6,4.2l-166.4,96.1   c2.7-20.5,6.3-40.9,11.8-61.2C458.6,376.1,487.2,318.8,525.7,269.1z M427.1,597.8l174.9-101l20.8,36.1L432.5,642.8   C430,627.9,428.2,612.9,427.1,597.8z M732.3,1916.7H264.6l55.6-166.7h356.6L732.3,1916.7z M464.9,1666.7L901,876.7   c4.6,6.3,9.5,12.4,15.2,18c25.1,25.1,57.8,39.8,92.9,42.2l-410,729.7H464.9z M1063.5,835.8c-23.6,23.6-64.8,23.6-88.4,0   c-11.8-11.8-18.3-27.5-18.3-44.2s6.5-32.4,18.3-44.2c11.8-11.8,27.5-18.3,44.2-18.3s32.4,6.5,44.2,18.3c0,0,0,0,0,0   c11.8,11.8,18.3,27.5,18.3,44.2S1075.3,824,1063.5,835.8z M1690.6,1916.7h-467.7l55.6-166.7h356.6L1690.6,1916.7z M1415.1,1666.7   v-28.2c28.6-2.6,56.9-10.7,83.3-24.2v52.4H1415.1z M1467.2,1537c-33.7,19.5-73,24.1-109.1,14.9l176.6-102   C1524.6,1485.8,1500.9,1517.5,1467.2,1537z M1598.9,1316.6l-345.2,199.3c0,0,0,0,0,0l-43.2,24.9l-77.7-51.3l460.6-265.9   L1598.9,1316.6z M906,1524.2l-67.4-113.8l183.8-327.2c49.3-0.5,97.5-13.4,140.8-37.9c139.9-79.3,189.1-257.7,109.8-397.6   c-11.4-20-36.8-27-56.8-15.7c-20,11.4-27,36.8-15.7,56.8c56.7,99.9,21.5,227.3-78.4,284c-15.4,8.7-31.8,15-48.6,19.5l69.1-122.9   c0-0.1,0-0.1,0.1-0.2c14.6-23,22.5-49.7,22.5-77.6c0-39-15.2-75.6-42.7-103.1c-27.5-27.5-64.2-42.7-103.1-42.7   c-39,0-75.6,15.2-103.1,42.7c-8.4,8.3-15.4,17.6-21.4,27.4c-0.3,0.5-0.7,0.9-1,1.4l-1.5,2.7c-0.9,1.6-1.8,3.1-2.6,4.7l-217.4,393.8   L510.5,838.3l830-479.2l395.8,685.6L906,1524.2z"></path></g></svg>