<svg height='100px' width='100px'  fill="#FFFFFF" xmlns="http://www.w3.org/2000/svg" viewBox="0 0 100 100" x="0px" y="0px"><g fill="#FFFFFF" fill-rule="evenodd"><path d="M43.9970294,81.0319197 C45.2333521,81.0136888 46.5646537,81.0054626 48.000829,81.0021149 C48.0019747,78.285455 48.0039024,74.9179688 48.0039024,74.9179688 C48.0039024,74.9179688 48,67.944417 48,65.5094866 C48,64.3666295 51.9960976,64.3666295 51.9960976,65.5094866 C51.9960976,67.8219945 52,74.9179688 52,74.9179688 C52,74.9179688 51.9979744,78.214322 51.9968419,81.0021094 C53.4331147,81.0054517 54.7645553,81.0136692 56.0010486,81.0318878 C56.0022045,79.0138252 56.0039024,76.9179688 56.0039024,76.9179688 C56.0039024,76.9179688 56,69.944417 56,67.5094866 C56,66.3666295 59.9960976,66.3666295 59.9960976,67.5094866 C59.9960976,69.8219945 60,76.9179688 60,76.9179688 C60,76.9179688 59.9981168,79.0174778 59.9969668,81.1465367 C67.345724,81.4970542 70.4236629,82.670487 72.8605501,86.5490181 C74.6822177,89.4483703 77.8974768,91 81.4441173,91 C87.2431072,91 91.9441173,86.2132859 91.9441173,80.5 C91.9441173,72.9524022 85.5134211,76.8934986 85.5134211,46.9473097 C85.5134211,24.9150043 73.0041172,7.99631905 50.0020586,7.99631905 C27,7.99631905 14.4906962,24.9150043 14.4906962,46.9473097 C14.4906962,76.8934986 8.05999994,72.9524022 8.05999994,80.5 C8.05999994,86.2132859 12.7610101,91 18.5599999,91 C22.1066405,91 25.3218996,89.4483703 27.1435671,86.5490181 C29.5801469,82.6709763 32.6554139,81.4973503 40.0009834,81.1466694 C40.0021395,79.0941191 40.0039024,76.9179688 40.0039024,76.9179688 C40.0039024,76.9179688 40,69.944417 40,67.5094866 C40,66.3666295 43.9960976,66.3666295 43.9960976,67.5094866 C43.9960976,69.8219945 44,76.9179688 44,76.9179688 C44,76.9179688 43.9981838,78.942777 43.9970294,81.0319197 L43.9970294,81.0319197 Z M50,85.0008237 C37,85.0008237 32.1119532,84.4794761 28.6846565,89.0623985 C26.1743164,92.4191822 22.1536623,95 17.5,95 C10.0441559,95 4,88.9558441 4,81.5 C4,71.9922557 10.4937911,75.2557761 10.4937911,48.4454752 C10.4937911,23.932682 25.2285503,5.00209758 50,5.00000017 C74.7739343,5 89.5103262,23.931324 89.5103262,48.4454752 C89.5103262,75.2557761 96.0041173,71.9922557 96.0041173,81.5 C96.0041173,88.9558441 89.9599614,95 82.5041173,95 C77.850455,95 73.8298009,92.4191822 71.3194608,89.0623985 C67.8921641,84.4794761 63,85.0008237 50,85.0008237 Z M81.5,88 C77.9101491,88 75,85.0898509 75,81.5 C75,77.9101491 77.9101491,75 81.5,75 C85.0898509,75 88,77.9101491 88,81.5 C88,85.0898509 85.0898509,88 81.5,88 Z M18.5,88 C14.9101491,88 12,85.0898509 12,81.5 C12,77.9101491 14.9101491,75 18.5,75 C22.0898509,75 25,77.9101491 25,81.5 C25,85.0898509 22.0898509,88 18.5,88 Z"></path><path d="M9.9,15.6727577 C16.8770508,13.9527086 22,12.4165908 22,8.00099881 C22,3.59370541 19.1707764,-0.168836152 11,0.00586226596 C2.82922363,0.180560684 0,3.58540682 0,8.00099881 C0,12.4165908 3.2055409,17.3231396 9.9,15.6727577 Z" transform="matrix(-1 0 0 1 76 35)"></path><path d="M7.08500625,0.922607422 C9.14355469,0.0751953125 18.1141357,0.100585937 20.0850062,0.922607422 C20.3358332,1.02722368 20.0850062,5.57999992 20.0850062,6.9639921 C21.5900002,6.9639921 26.5311698,6.69063916 26.5850062,6.97949219 C26.9481201,8.92773437 26.9431152,18.1008301 26.5850062,19.9794922 C26.5244516,20.2971657 21.5900002,19.9799995 20.0850062,19.9639921 C20.0850062,21.4799995 20.3521797,26.7803008 20.0850062,26.9226074 C18.1561279,27.9500008 8.91833496,27.9450684 7.08500625,26.9226074 C6.69885317,26.707247 7.08500625,21.4799995 7.08500625,19.9794922 C5.59000015,19.9799995 0.664700091,20.2713895 0.585006249,19.9794922 C0.0668945312,18.0817871 0.142578125,8.88720703 0.585006249,6.97949219 C0.648876018,6.70409083 5.59000015,6.97949219 7.08500625,6.97949219 C7.08500625,5.57568359 6.69430279,1.08344252 7.08500625,0.922607422 Z M9.46537734,2.97167969 C10.9509277,2.23632813 16.1877441,2.20263672 17.7046352,2.97167969 C17.3898926,7.97949219 17.4069824,18.9794922 17.7046352,23.9873047 C16.2641602,24.9155273 10.8481445,24.8190918 9.46537734,23.9873047 C9.8125,18.9794922 9.74755859,7.9639921 9.46537734,2.97167969 Z M24.0928187,9.35986328 C24.6162109,11.3830566 24.4025879,16.0981445 24.0928187,17.5991211 C23.2511597,17.8398438 20.6496129,17.5991211 19.25,17.5991211 C19.1247105,16.0692139 19.1421056,11.0151367 19.25,9.35986328 C21.9202881,9.35986328 23.2596436,9.15808105 24.0928187,9.35986328 Z M7.82999992,9.35986328 C7.93137932,10.9615479 7.94592141,15.0407715 7.82999992,17.5991211 C6.65514992,17.5991211 4.26104736,17.7785645 3.07719375,17.5991211 C2.75610352,15.4853516 2.73681641,12.0671387 3.07719375,9.35986328 C4.64776611,9.16333008 7.23087883,9.33984375 7.82999992,9.35986328 Z" transform="rotate(-30 78.476 -12.972)"></path></g></svg>