<svg height='100px' width='100px'  fill="#FFFFFF" xmlns="http://www.w3.org/2000/svg" viewBox="0 0 100 100" x="0px" y="0px"><g fill="#FFFFFF" fill-rule="evenodd"><path d="M56.0008334,90.9917006 C56.0019796,88.276857 56.0039024,84.9179687 56.0039024,84.9179687 C56.0039024,84.9179687 56,77.944417 56,75.5094866 C56,74.3666295 59.9960976,74.3666295 59.9960976,75.5094866 C59.9960976,77.8219945 60,84.9179687 60,84.9179687 C60,84.9179687 59.9979812,88.203194 59.9968477,90.9879764 C72.0302907,90.9726758 79.2737565,90.8965471 84,90 C99.3934852,87.0799253 85.5,64.0619574 85.5,46.9474089 C85.5,24.8830377 71.0750711,7.99633085 50,7.99633085 C42.4597843,7.99633085 36.0565906,9.79970011 30.8525187,12.997808 C32.0014001,15.3983793 33.0200005,18.0270922 33.0200005,19.801579 C33.0200005,23.8710456 29.6621361,27.1700001 25.5200005,27.1700001 C23.2439895,27.1700001 21.2047702,26.173961 19.8293052,24.6013549 C16.3093912,30.8624142 14.5,38.5279575 14.5,46.9474089 C14.5,65.0876728 -0.211840817,87.2246423 16,90 C20.8072771,90.7687098 27.9979595,90.9734658 40.0008283,91.0038991 C40.0019739,88.2869297 40.0039024,84.9179687 40.0039024,84.9179687 C40.0039024,84.9179687 40,77.944417 40,75.5094866 C40,74.3666295 43.9960976,74.3666295 43.9960976,75.5094866 C43.9960976,77.8219945 44,84.9179687 44,84.9179687 C44,84.9179687 43.9979715,88.219096 43.9968395,91.0081626 C45.2816148,91.0079421 46.6155059,91.0064344 48.0008282,91.004011 C48.0019738,88.2870223 48.0039024,84.9179687 48.0039024,84.9179687 C48.0039024,84.9179687 48,77.944417 48,75.5094866 C48,74.3666295 51.9960976,74.3666295 51.9960976,75.5094866 C51.9960976,77.8219945 52,84.9179687 52,84.9179687 C52,84.9179687 51.9979773,88.2096843 51.9968443,90.9962233 C53.3815607,90.9940435 54.7155042,90.9927764 56.0008334,90.9917006 L56.0008334,90.9917006 Z M18.147047,21.1592491 C18.0636194,20.7191971 18.0200005,20.2653925 18.0200005,19.801579 C18.0200005,15.7321124 27.6628576,7.17000008 27.6628576,7.17000008 C27.6628576,7.17000008 28.4876173,8.48818136 29.4899129,10.3359378 C35.1954093,6.92188881 42.0807406,5 50,5 C74.8335846,5 89.5,23.8989614 89.5,48.4455743 C89.5,66.447253 104.621734,92.1631052 89,94 C83.3703625,94.6678463 81.5976036,94.7200694 50,95 C18.2892028,95.2799306 16.9284774,94.613847 11,94 C-4.42896321,92.2352264 10.5,66.6574803 10.5,48.4455743 C10.5,37.981664 13.1651942,28.5440499 18.147047,21.1592491 L18.147047,21.1592491 Z M25.488752,22.9480829 C28.2328278,22.9480829 30.0133529,21.7660776 30.0133529,19.0701434 C30.0133529,16.3742093 27.1558993,11.3789785 27.1558993,11.3789785 C27.1558993,11.3789785 21.1481657,16.417708 21.1481657,19.1136422 C21.1481657,21.8095764 22.7446761,22.9480829 25.488752,22.9480829 Z"></path><g transform="translate(24 35)"><path d="M9.9,15.6727577 C16.8770508,13.9527086 22,12.4165908 22,8.00099881 C22,3.59370541 19.1707764,-0.168836152 11,0.00586226596 C2.82922363,0.180560684 0,3.58540682 0,8.00099881 C0,12.4165908 3.2055409,17.3231396 9.9,15.6727577 Z" transform="matrix(-1 0 0 1 52 0)"></path><path d="M9.9,15.6727577 C16.8770508,13.9527086 22,12.4165908 22,8.00099881 C22,3.59370541 19.1707764,-0.168836152 11,0.00586226596 C2.82922363,0.180560684 0,3.58540682 0,8.00099881 C0,12.4165908 3.2055409,17.3231396 9.9,15.6727577 Z"></path></g></g></svg>